<svg xmlns="http://www.w3.org/2000/svg" width="14.24" height="14.25" viewBox="0 0 14.24 14.25">
  <defs>
    <style>
      .cls-1 {
        fill: #fff;
        fill-rule: evenodd;
      }
    </style>
  </defs>
  <path id="ico-facebook.svg" class="cls-1" d="M4120.34,343.872h-12.68a0.786,0.786,0,0,0-.79.785v12.685a0.786,0.786,0,0,0,.79.786h6.83V352.6h-1.87v-2.145h1.87v-1.587a2.585,2.585,0,0,1,2.76-2.84,15.862,15.862,0,0,1,1.66.08v1.925h-1.13a0.893,0.893,0,0,0-1.07,1.048v1.374h2.13l-0.28,2.145h-1.85v5.527h3.63a0.786,0.786,0,0,0,.79-0.786V344.657A0.786,0.786,0,0,0,4120.34,343.872Z" transform="translate(-4106.88 -343.875)"/>
</svg>
