<svg xmlns="http://www.w3.org/2000/svg" width="16" height="16" viewBox="0 0 16 16">
  <defs>
    <style>
      .cls-1 {
        fill-rule: evenodd;
      }
    </style>
  </defs>
  <path id="ico-facebook-b.svg" class="cls-1" d="M146.117,257H131.882a0.882,0.882,0,0,0-.882.883v14.236a0.882,0.882,0,0,0,.882.883h7.665v-6.2h-2.094v-2.4h2.094v-1.782a2.9,2.9,0,0,1,3.1-3.186,17.668,17.668,0,0,1,1.864.088v2.161h-1.279a1,1,0,0,0-1.19,1.175v1.544h2.384l-0.311,2.4h-2.073V273h4.07a0.883,0.883,0,0,0,.883-0.883V257.882A0.883,0.883,0,0,0,146.117,257Z" transform="translate(-131 -257)"/>
</svg>
