<svg xmlns="http://www.w3.org/2000/svg" width="15" height="12" viewBox="0 0 15 12">
  <defs>
    <style>
      .cls-1 {
        fill: #fff;
        fill-rule: evenodd;
      }
    </style>
  </defs>
  <path id="ico-twitter.svg" class="cls-1" d="M4253.72,357.015a8.638,8.638,0,0,0,8.75-8.642c0-.131,0-0.26-0.01-0.39a6.186,6.186,0,0,0,1.53-1.574,6.145,6.145,0,0,1-1.76.479,3.076,3.076,0,0,0,1.35-1.68,6.19,6.19,0,0,1-1.95.735,3.1,3.1,0,0,0-2.25-.958,3.051,3.051,0,0,0-3.07,3.037,2.639,2.639,0,0,0,.08.692,8.771,8.771,0,0,1-6.34-3.173,3.006,3.006,0,0,0,.95,4.054,3.087,3.087,0,0,1-1.39-.38v0.039a3.048,3.048,0,0,0,2.47,2.977,3.061,3.061,0,0,1-.81.106,3.265,3.265,0,0,1-.58-0.053,3.062,3.062,0,0,0,2.87,2.107,6.2,6.2,0,0,1-3.82,1.3,6.041,6.041,0,0,1-.73-0.042,8.757,8.757,0,0,0,4.71,1.365" transform="translate(-4249 -345)"/>
</svg>
