<svg xmlns="http://www.w3.org/2000/svg" width="12.62" height="12.593" viewBox="0 0 12.62 12.593">
  <defs>
    <style>
      .cls-1 {
        fill: #fff;
        fill-rule: evenodd;
      }
    </style>
  </defs>
  <path id="ico-tel.svg" class="cls-1" d="M3686.18,352.8a0.716,0.716,0,0,0-1.01,0l-0.87.871a0.708,0.708,0,0,1-.94.059,21.2,21.2,0,0,1-4.1-4.1,0.719,0.719,0,0,1,.06-0.942l0.87-.872a0.71,0.71,0,0,0,0-1.008l-1.91-1.919a0.712,0.712,0,0,0-1.01,0c-0.01,0-.1.1-1.16,1.158-1.22,1.226.4,4.985,3.12,7.717s6.48,4.354,7.71,3.129c1.05-1.055,1.14-1.153,1.15-1.158a0.712,0.712,0,0,0,0-1.01Z" transform="translate(-3675.69 -344.688)"/>
</svg>
