<svg xmlns="http://www.w3.org/2000/svg" width="16" height="13" viewBox="0 0 16 13">
  <defs>
    <style>
      .cls-1 {
        fill-rule: evenodd;
      }
    </style>
  </defs>
  <path id="ico-twitter-b.svg" class="cls-1" d="M165.033,270a9.275,9.275,0,0,0,9.339-9.337c0-.142,0-0.284-0.009-0.425a6.677,6.677,0,0,0,1.637-1.7,6.577,6.577,0,0,1-1.885.516,3.281,3.281,0,0,0,1.443-1.815,6.589,6.589,0,0,1-2.084.8,3.285,3.285,0,0,0-5.594,2.993,9.319,9.319,0,0,1-6.766-3.429,3.285,3.285,0,0,0,1.016,4.381,3.269,3.269,0,0,1-1.487-.41c0,0.013,0,.026,0,0.042a3.285,3.285,0,0,0,2.634,3.217,3.254,3.254,0,0,1-1.483.056,3.291,3.291,0,0,0,3.068,2.28,6.586,6.586,0,0,1-4.078,1.4,6.748,6.748,0,0,1-.783-0.045A9.3,9.3,0,0,0,165.033,270" transform="translate(-160 -257)"/>
</svg>
