<svg xmlns="http://www.w3.org/2000/svg" width="28" height="28" viewBox="0 0 28 28">
  <defs>
    <style>
      .cls-1 {
        fill-rule: evenodd;
      }
    </style>
  </defs>
  <path id="ico-line_at-b.svg" class="cls-1" d="M281.633,416.8a2.2,2.2,0,1,0,2.2,2.2A2.2,2.2,0,0,0,281.633,416.8Zm8.3-11.8H274.067A6.067,6.067,0,0,0,268,411.067v15.866A6.067,6.067,0,0,0,274.067,433h15.866A6.067,6.067,0,0,0,296,426.933V411.067A6.067,6.067,0,0,0,289.933,405Zm0.61,17.141a3.719,3.719,0,0,1-3.334,2.675,3.348,3.348,0,0,1-3.075-2.026l-0.042-.1-0.088.056a4.442,4.442,0,1,1-.272-7.66l0.125,0.068,0.007-.142a0.363,0.363,0,0,1,.362-0.346h1.686a0.366,0.366,0,0,1,.365.364v6.436a0.933,0.933,0,0,0,.932.932,1.461,1.461,0,0,0,1.053-1.056,7.105,7.105,0,0,0,.423-2.345,6.68,6.68,0,1,0-4.606,6.355l0.544-.191a0.363,0.363,0,0,1,.461.233l0.522,1.6a0.366,0.366,0,0,1-.238.46l-0.541.191A9.1,9.1,0,1,1,291.1,419,9.518,9.518,0,0,1,290.543,422.141Z" transform="translate(-268 -405)"/>
</svg>
