<svg xmlns="http://www.w3.org/2000/svg" width="29" height="29" viewBox="0 0 29 29">
  <defs>
    <style>
      .cls-1 {
        fill-rule: evenodd;
      }
    </style>
  </defs>
  <path id="ico-instagram-b.svg" class="cls-1" d="M237.5,406.605c3.873,0,4.331.015,5.861,0.085a8.056,8.056,0,0,1,2.693.5,4.8,4.8,0,0,1,2.753,2.753,8.03,8.03,0,0,1,.5,2.693c0.07,1.53.085,1.988,0.085,5.861s-0.015,4.332-.085,5.861a8.03,8.03,0,0,1-.5,2.693,4.8,4.8,0,0,1-2.753,2.753,8.03,8.03,0,0,1-2.693.5c-1.529.07-1.988,0.085-5.861,0.085s-4.332-.015-5.861-0.085a8.03,8.03,0,0,1-2.693-.5,4.8,4.8,0,0,1-2.753-2.753,8.03,8.03,0,0,1-.5-2.693c-0.07-1.529-.085-1.988-0.085-5.861s0.015-4.331.085-5.861a8.03,8.03,0,0,1,.5-2.693,4.8,4.8,0,0,1,2.753-2.753,8.056,8.056,0,0,1,2.693-.5c1.53-.07,1.988-0.085,5.861-0.085m0-2.613c-3.939,0-4.433.017-5.98,0.087a10.649,10.649,0,0,0-3.521.675A7.412,7.412,0,0,0,223.761,409a10.678,10.678,0,0,0-.674,3.521c-0.07,1.547-.087,2.041-0.087,5.98s0.017,4.433.087,5.98a10.678,10.678,0,0,0,.674,3.521A7.417,7.417,0,0,0,228,432.239a10.678,10.678,0,0,0,3.521.674c1.547,0.07,2.041.087,5.98,0.087s4.433-.017,5.98-0.087a10.678,10.678,0,0,0,3.521-.674A7.412,7.412,0,0,0,251.246,428a10.649,10.649,0,0,0,.675-3.521c0.07-1.547.087-2.041,0.087-5.98s-0.017-4.433-.087-5.98a10.649,10.649,0,0,0-.675-3.521,7.406,7.406,0,0,0-4.241-4.241,10.649,10.649,0,0,0-3.521-.675c-1.547-.07-2.041-0.087-5.98-0.087h0Zm0,7.056a7.448,7.448,0,1,0,7.448,7.448A7.449,7.449,0,0,0,237.5,411.048Zm0,12.283a4.835,4.835,0,1,1,4.835-4.835A4.835,4.835,0,0,1,237.5,423.331Zm9.483-12.577a1.741,1.741,0,1,1-1.741-1.741A1.741,1.741,0,0,1,246.987,410.754Z" transform="translate(-223 -404)"/>
</svg>
